# xmcd CD database file
#
# Track frame offsets:
#	150
#	26690
#	57581
#	84523
#	110543
#	140431
#	169381
#	196646
#	218988
#	243708
#	292168
#
# Disc length: 4554 seconds
#
# Revision: 0
# Processed by: cddbd v1.5.2PL0 Copyright (c) Steve Scherf et al.
# Submitted via: CDex 1.70beta2
#
DISCID=aa11c80b
DTITLE=Wayne Gorbea - Introducing Wayne Gorbea's Salsa Picante
DYEAR=2007
DGENRE=Salsa
TTITLE0=Prakatún!
TTITLE1=Dejame Un Lado
TTITLE2=Pa' Puerto Rico
TTITLE3=Van Baila Conmigo
TTITLE4=Contigo No
TTITLE5=Sigo Pa' Lante
TTITLE6=DJs Sabroso
TTITLE7=Lo Que Dice Justi
TTITLE8=Para La Rumba
TTITLE9=El Yo-Yo (Live)
TTITLE10=La Lengua (Live)
EXTD=YEAR: 2007
EXTT0=
EXTT1=
EXTT2=
EXTT3=
EXTT4=
EXTT5=
EXTT6=
EXTT7=
EXTT8=
EXTT9=
EXTT10=
PLAYORDER=
